<svg width="1024" height="1024" viewBox="0 0 1024 1024" fill="none" xmlns="http://www.w3.org/2000/svg">
<path d="M213.356 0C95.1693 0 0 95.1693 0 213.356V263.39V810.644C0 928.831 95.1693 1024 213.356 1024H810.644C928.831 1024 1024 928.831 1024 810.644V263.39V213.356C1024 95.1693 928.831 0 810.644 0H213.356Z" fill="#69B6FF"/>
<path d="M512 344.339C396.779 344.339 300.354 420.125 273.695 522.237C199.847 532.925 143.187 593.576 143.187 667.051C143.187 706.645 159.659 742.559 186.373 768.949L441.424 1024H810.644C928.831 1024 1024 928.831 1024 810.644V751.186L689.085 416.339C644.356 371.997 581.582 344.339 512 344.339Z" fill="black" fill-opacity="0.235294"/>
<path d="M310.848 210.237C218.259 210.237 143.187 285.314 143.187 377.898C143.187 425.017 162.669 467.51 193.966 497.966L230.78 534.847C244.147 528.763 258.538 524.431 273.695 522.237C300.354 420.125 396.779 344.339 512 344.339C512.745 344.339 513.494 344.332 514.237 344.339L430.915 261.017C400.46 229.719 357.969 210.237 310.848 210.237Z" fill="black" fill-opacity="0.235294"/>
<path d="M478.472 377.886C478.472 470.47 403.418 545.529 310.829 545.529C218.24 545.529 143.187 470.47 143.187 377.886C143.187 285.302 218.24 210.243 310.829 210.243C403.418 210.243 478.472 285.302 478.472 377.886Z" fill="#F2D54E"/>
<path opacity="0.5" d="M472.475 333.492C369.479 344.305 285.822 415.847 261.288 509.831C247.771 511.782 234.833 515.396 222.712 520.475C240.87 531.725 261.286 539.552 283.186 543.186C311.722 460.852 386.531 398.727 478.305 385.085C478.406 382.698 478.441 380.309 478.441 377.898C478.441 362.515 476.355 347.643 472.475 333.492Z" fill="black" fill-opacity="0.235294"/>
<path d="M757.878 579.057C757.878 449.436 647.797 344.357 512 344.357C396.779 344.357 300.345 420.117 273.686 522.23C199.838 532.917 143.187 593.595 143.187 667.069C143.187 748.081 211.985 813.757 296.861 813.757H757.878C825.773 813.757 880.814 761.217 880.814 696.407C880.814 631.596 825.773 579.057 757.878 579.057Z" fill="white"/>
</svg>
